<svg width="803" height="166" viewBox="0 0 803 166" fill="none" xmlns="http://www.w3.org/2000/svg">
<path d="M132.627 110.711V58.1028C132.627 25.3882 111.185 3.72583 66.3134 3.72583C23.6518 3.72583 0 24.7251 0 58.1028V110.711C0 144.089 23.6518 165.088 66.3134 165.088C111.185 165.088 132.627 143.426 132.627 110.711ZM44.2089 106.291V62.5237C44.2089 50.5873 52.1666 43.7349 66.3134 43.7349C81.3445 43.7349 88.4178 50.8083 88.4178 62.5237V106.291C88.4178 118.006 81.3445 125.079 66.3134 125.079C52.1666 125.079 44.2089 118.227 44.2089 106.291Z" fill="#E11D48"/>
<path d="M197.68 84.4071C203.648 84.4071 206.742 87.2807 206.742 92.5858V161.773H248.741V89.4912C248.741 65.3973 236.804 47.9348 206.742 47.9348C181.764 47.9348 172.038 70.2603 169.386 87.2807H167.618C169.165 75.3443 172.701 63.1868 178.67 51.2504H146.618V161.773H188.617V92.5858C188.617 87.2807 191.269 84.4071 197.68 84.4071Z" fill="#E11D48"/>
<path d="M293.015 46.8296V161.773H337.224V55.6714L301.194 46.8296H374.802V7.04153H255.438V46.8296H293.015Z" fill="#E11D48"/>
<path d="M424.34 92.5858C424.34 87.2807 426.993 84.4071 433.403 84.4071H452.413V47.9348H442.466C417.488 47.9348 407.541 70.2603 405.109 87.2807H403.341C404.888 75.3443 408.425 63.1868 414.393 51.2504H382.342V161.773H424.34V92.5858Z" fill="#E11D48"/>
<path d="M457.359 128.174V128.616C457.359 149.836 471.727 165.088 501.125 165.088C526.104 165.088 535.829 142.763 538.482 125.742H540.25C538.703 137.679 535.166 149.836 529.198 161.773H561.25V91.9226C561.25 66.2814 543.566 48.1558 515.051 48.1558C485.21 48.1558 470.621 60.9764 462.001 75.1232L493.61 93.912C496.484 88.1649 501.125 83.0808 509.083 83.0808C515.493 83.0808 519.03 87.0596 519.251 93.912V96.5646C471.727 93.0279 457.359 108.059 457.359 128.174ZM501.125 120.437V117.122C501.125 111.817 504.22 108.943 510.188 108.943C516.599 108.943 519.251 112.038 519.251 117.122V120.437C519.251 125.742 516.599 128.616 510.188 128.616C504.22 128.616 501.125 125.742 501.125 120.437Z" fill="#E11D48"/>
<path d="M636.312 97.0067L675.216 85.9544C672.563 63.85 657.753 48.1558 624.596 48.1558C591.439 48.1558 573.314 65.6183 573.314 99.4381V117.343C573.314 147.626 591.439 165.088 624.596 165.088C652.227 165.088 666.374 152.489 674.331 134.363L636.312 116.68C633.438 123.974 630.122 128.616 624.596 128.616C617.965 128.616 614.428 125.742 614.428 113.806V99.4381C614.428 87.5017 617.965 84.6282 624.596 84.6282C631.67 84.6282 634.322 88.828 636.312 97.0067Z" fill="#E11D48"/>
<path d="M727.845 0.410156H685.846V161.773H727.845V114.248L756.581 161.773H803L797.253 152.489C770.506 108.28 757.023 107.838 745.528 107.838V105.848C757.023 105.848 770.948 103.417 793.274 61.4185L798.579 51.2504H754.37L727.845 101.428V0.410156Z" fill="#E11D48"/>
</svg>
